<?xml version="1.0" encoding="UTF-8" standalone="no"?>
<!-- Created with Inkscape (http://www.inkscape.org/) -->

<svg
   version="1.1"
   id="svg1"
   width="1372"
   height="772"
   viewBox="0 0 1372 772"
   sodipodi:docname="banner"
   inkscape:dataloss="true"
   xmlns:inkscape="http://www.inkscape.org/namespaces/inkscape"
   xmlns:sodipodi="http://sodipodi.sourceforge.net/DTD/sodipodi-0.dtd"
   xmlns="http://www.w3.org/2000/svg"
   xmlns:svg="http://www.w3.org/2000/svg">
  <defs
     id="defs1" />
  <sodipodi:namedview
     id="namedview1"
     pagecolor="#ffffff"
     bordercolor="#000000"
     borderopacity="0.25"
     inkscape:showpageshadow="2"
     inkscape:pageopacity="0.0"
     inkscape:pagecheckerboard="0"
     inkscape:deskcolor="#d1d1d1"
     inkscape:zoom="0.60641399"
     inkscape:cx="686"
     inkscape:cy="386.69952"
     inkscape:window-width="1984"
     inkscape:window-height="974"
     inkscape:window-x="2240"
     inkscape:window-y="25"
     inkscape:window-maximized="0"
     inkscape:current-layer="g1">
    <inkscape:page
       x="0"
       y="0"
       width="1372"
       height="772"
       id="page2"
       margin="0"
       bleed="0" />
  </sodipodi:namedview>
  <g
     inkscape:groupmode="layer"
     inkscape:label="Image"
     id="g1">
    <path
       style="fill:#000000"
       d="M 596.51763,767.83333 C 595.23921,761.44124 595.5829,750.65433 597.277,744 l 1.52752,-6 -0.27713,-21.33333 -0.27713,-21.33334 1.39186,-10.66666 C 600.40764,678.8 601.60005,666.8 602.29192,658 l 1.25794,-16 2.6191,-8.66667 c 1.44051,-4.76666 3.26318,-13.65575 4.05038,-19.75352 0.7872,-6.09777 3.23885,-19.17136 5.44811,-29.05242 l 4.01684,-17.96557 v -6.37909 c 0,-9.57433 6.21422,-54.6497 8.48078,-61.51606 1.08931,-3.3 4.93362,-13.59316 8.5429,-22.87368 l 6.56233,-16.87368 7.87366,-11.49827 c 15.09535,-22.04443 16.37378,-23.78892 20.71878,-28.27181 2.40498,-2.48132 7.09869,-5.82278 10.43046,-7.42548 3.33177,-1.6027 8.72523,-4.59619 11.98547,-6.65221 l 5.92771,-3.73821 h 3.05741 c 5.04265,0 23.3304,-5.276 29.75384,-8.58397 3.3,-1.69944 9.75239,-4.36328 14.33864,-5.91963 L 755.69491,384 h 6.41441 6.41441 l 2.3769,-5 c 1.3073,-2.75 4.9947,-8.67426 8.19422,-13.16502 l 5.8173,-8.16502 6.38607,-5.27253 c 3.51234,-2.89988 9.08607,-7.1057 12.38607,-9.34626 l 6,-4.07374 3.30426,-9.82205 3.30426,-9.82205 7.9528,-11.92372 7.9528,-11.92373 7.78461,-7.7846 7.78461,-7.78461 3.95833,-0.79167 3.95833,-0.79167 v -2.95793 c 0,-1.62686 1.26743,-6.50186 2.81652,-10.83333 l 2.81651,-7.8754 0.12808,-10 c 0.0704,-5.5 -0.3306,-20.15936 -0.89121,-32.57635 l -1.01928,-22.57634 1.56135,-6.75699 c 0.85874,-3.71634 3.35517,-10.05699 5.54763,-14.09032 17.47609,-32.14972 26.84794,-54.64982 28.45578,-68.31714 l 0.74316,-6.317145 4.49723,-6.682859 4.49724,-6.682859 h -5.16448 -5.16448 l -0.78323,-1.267292 -0.78323,-1.267292 2.99148,-6.364091 2.99147,-6.36409 9.37973,-9.9175 9.37973,-9.917501 7.77125,-5.051769 7.77124,-5.051769 6.09963,-0.914696 6.09963,-0.914695 6.68309,-4.15132 6.68309,-4.151319 h 12.18937 12.18937 l 6.44907,-5.67079 6.44907,-5.670791 5.3082,-1.590374 5.3082,-1.590374 8.1661,2.351722 c 4.4913,1.293447 13.4629,3.505065 19.9369,4.914708 17.0283,3.707755 27.5625,10.03848 27.5625,16.564255 v 1.770422 l 7.3053,4.122864 c 6.9683,3.932669 14.5591,10.740434 22.2078,19.916868 l 3.5131,4.214824 h 4.2944 c 2.362,0 7.8727,-0.927217 12.2461,-2.060482 l 7.9517,-2.060482 2.9075,0.876941 c 1.5991,0.482318 4.5574,2.421789 6.5741,4.309937 l 3.6667,3.432996 v 4.871062 4.871062 l -6.4889,10.796408 c -3.5688,5.938024 -8.4135,13.226551 -10.7659,16.196721 l -4.2771,5.40031 2.1845,7.51474 c 5.1008,17.54587 8.7972,33.96066 10.175,45.18412 l 1.4731,12 -0.7571,8.22887 -0.7571,8.22887 5.1324,13.10446 c 2.8229,7.20746 5.5372,15.58689 6.0319,18.62097 l 0.8995,5.5165 -1.5117,5.81683 c -0.8315,3.19926 -3.4935,9.11683 -5.9158,13.15017 -2.4222,4.03333 -5.4408,10.51125 -6.7079,14.39536 l -2.3038,7.06204 3.4611,3.20763 3.4611,3.20764 -0.018,5.73033 -0.018,5.73033 -3.8236,10.98466 -3.8236,10.98466 -5.5976,8.92768 -5.5977,8.92767 1.9864,4.75433 c 1.0925,2.61488 4.1634,9.66272 6.8243,15.66185 l 4.8379,10.90752 0.7843,6.62237 0.7843,6.62237 2.9229,1.33172 c 1.6075,0.73246 5.7677,3.79401 9.2449,6.80345 3.4771,3.00945 6.8741,5.47172 7.5489,5.47172 0.6748,0 1.6039,1.50232 2.0647,3.33848 l 0.8379,3.33849 7.5209,2.06476 c 17.1023,4.69528 32.1231,10.93066 40.4113,16.7754 1.9564,1.37966 7.9564,4.36673 13.3333,6.63794 5.3769,2.2712 10.6762,4.89447 11.7762,5.82949 1.1,0.93501 3.5,2.13304 5.3333,2.66228 1.8334,0.52923 6.9334,2.46316 11.3334,4.2976 4.4,1.83445 10.4,4.31141 13.3333,5.50436 l 5.3333,2.169 7.0262,6.57593 7.0262,6.57593 2.1577,7.42213 2.1576,7.42212 3.7131,4.69305 3.713,4.69304 1.4361,5.47445 1.4361,5.47445 4.4702,5.85888 c 11.319,14.83498 16.2251,26.90477 21.4603,52.79571 1.8976,9.38475 5.8872,25.46318 8.8659,35.72984 l 5.4157,18.66667 1.1012,14.80522 1.1011,14.80522 2.6513,5.19478 c 1.4582,2.85713 3.929,6.35039 5.4908,7.7628 l 2.8395,2.56802 2.137,7.3511 2.137,7.35111 -0.8536,9.18481 -0.8536,9.18481 -3.4936,10.57028 -3.4935,10.57027 6.1518,5.41502 6.1518,5.41501 1.4084,5.23049 1.4085,5.23049 -1.751,7.01362 -1.751,7.01362 2.407,7.90476 c 1.3239,4.34762 2.7784,12.29762 3.2323,17.66667 L 1349.409,772 H 973.37994 597.35096 Z"
       id="path1" />
  </g>
</svg>
